<svg viewBox="0 0 186.73 187.38" xmlns="http://www.w3.org/2000/svg" xmlns:xlink="http://www.w3.org/1999/xlink">
<defs>
<linearGradient id="b" x1="211.03" x2="159.64" y1="455.03" y2="528.96" gradientTransform="translate(589.01 -153.75) rotate(90)" gradientUnits="userSpaceOnUse">
<stop stop-color="#00116e" offset="0"/>
<stop stop-color="#455bd8" offset="1"/>
</linearGradient>
<linearGradient id="a" x1="424.98" x2="361.55" y1="441.43" y2="532.67" gradientTransform="matrix(0 -1 -1 0 589.01 542.22)" gradientUnits="userSpaceOnUse">
<stop stop-color="#455bd8" offset="0"/>
<stop stop-color="#00116e" offset="1"/>
</linearGradient>
<linearGradient id="d" x1="622.85" x2="602.48" y1="-261.76" y2="-232.47" gradientTransform="translate(293.03 728.87) rotate(-90)" xlink:href="#b"/>
<linearGradient id="c" x1="57.34" x2="29.77" y1="-271.29" y2="-231.63" gradientTransform="matrix(0 1 1 0 293.03 32.9)" xlink:href="#a"/>
</defs>
<polygon points="134.68 108.17 167.62 73.53 124.07 27.75 124.07 0 77.49 0 77.49 48.13 77.76 48.13 77.67 48.23" fill="url(#b)"/>
<polygon points="153.79 59.12 186.73 93.76 124.07 159.63 124.07 187.38 77.49 187.38 77.49 139.25 77.76 139.25 77.67 139.16" fill="url(#a)"/>
<polygon points="34.63 84.06 12.71 107.1 41.69 137.57 63.56 114.47" fill="url(#d)"/>
<polygon points="21.92 116.69 0 93.65 41.69 49.81 63.56 76.07" fill="url(#c)"/>
</svg>
